<svg width="500" height="500" viewBox="0 0 500 500" fill="none" xmlns="http://www.w3.org/2000/svg">
<circle cx="250" cy="250" r="246" fill="#3A3A3A" stroke="#E0E0E0" stroke-width="8"/>
<path d="M123.008 80.1523H170.557C181.279 80.1523 189.453 80.9727 195.078 82.6133C202.637 84.8398 209.111 88.7949 214.502 94.4785C219.893 100.162 223.994 107.135 226.807 115.396C229.619 123.6 231.025 133.736 231.025 145.807C231.025 156.412 229.707 165.553 227.07 173.229C223.848 182.604 219.248 190.191 213.271 195.992C208.76 200.387 202.666 203.814 194.99 206.275C189.248 208.092 181.572 209 171.963 209H123.008V80.1523ZM149.023 101.949V187.291H168.447C175.713 187.291 180.957 186.881 184.18 186.061C188.398 185.006 191.885 183.219 194.639 180.699C197.451 178.18 199.736 174.049 201.494 168.307C203.252 162.506 204.131 154.625 204.131 144.664C204.131 134.703 203.252 127.057 201.494 121.725C199.736 116.393 197.275 112.232 194.111 109.244C190.947 106.256 186.934 104.234 182.07 103.18C178.438 102.359 171.318 101.949 160.713 101.949H149.023ZM273.301 287.152H320.85C331.572 287.152 339.746 287.973 345.371 289.613C352.93 291.84 359.404 295.795 364.795 301.479C370.186 307.162 374.287 314.135 377.1 322.396C379.912 330.6 381.318 340.736 381.318 352.807C381.318 363.412 380 372.553 377.363 380.229C374.141 389.604 369.541 397.191 363.564 402.992C359.053 407.387 352.959 410.814 345.283 413.275C339.541 415.092 331.865 416 322.256 416H273.301V287.152ZM299.316 308.949V394.291H318.74C326.006 394.291 331.25 393.881 334.473 393.061C338.691 392.006 342.178 390.219 344.932 387.699C347.744 385.18 350.029 381.049 351.787 375.307C353.545 369.506 354.424 361.625 354.424 351.664C354.424 341.703 353.545 334.057 351.787 328.725C350.029 323.393 347.568 319.232 344.404 316.244C341.24 313.256 337.227 311.234 332.363 310.18C328.73 309.359 321.611 308.949 311.006 308.949H299.316Z" fill="#E0E0E0"/>
<path d="M173.561 249.227C173.561 233.185 175.96 219.721 180.758 208.836C184.339 200.815 189.208 193.618 195.367 187.244C201.598 180.87 208.401 176.144 215.777 173.064C225.589 168.911 236.904 166.834 249.723 166.834C272.926 166.834 291.474 174.031 305.367 188.426C319.332 202.82 326.314 222.837 326.314 248.475C326.314 273.898 319.404 293.807 305.582 308.201C291.76 322.524 273.284 329.686 250.152 329.686C226.734 329.686 208.115 322.56 194.293 308.309C180.471 293.986 173.561 274.292 173.561 249.227ZM206.324 248.152C206.324 265.984 210.442 279.52 218.678 288.758C226.913 297.924 237.369 302.508 250.045 302.508C262.721 302.508 273.105 297.96 281.197 288.865C289.361 279.699 293.443 265.984 293.443 247.723C293.443 229.676 289.469 216.212 281.52 207.332C273.642 198.452 263.15 194.012 250.045 194.012C236.939 194.012 226.376 198.523 218.355 207.547C210.335 216.499 206.324 230.034 206.324 248.152Z" fill="#3A3A3A"/>
<path d="M180.758 208.836L173.453 205.575L173.445 205.592L173.437 205.609L180.758 208.836ZM195.367 187.244L189.646 181.652L189.63 181.668L189.614 181.685L195.367 187.244ZM215.777 173.064L218.859 180.447L218.878 180.439L218.896 180.431L215.777 173.064ZM305.367 188.426L299.611 193.982L299.618 193.989L299.625 193.996L305.367 188.426ZM305.582 308.201L311.339 313.756L311.346 313.749L311.353 313.742L305.582 308.201ZM194.293 308.309L188.536 313.864L188.543 313.871L188.55 313.878L194.293 308.309ZM218.678 288.758L212.706 294.081L212.716 294.093L212.727 294.104L218.678 288.758ZM281.197 288.865L275.223 283.545L275.221 283.547L281.197 288.865ZM281.52 207.332L275.535 212.641L275.547 212.654L275.559 212.668L281.52 207.332ZM218.355 207.547L224.314 212.885L224.324 212.874L224.335 212.862L218.355 207.547ZM181.561 249.227C181.561 233.93 183.855 221.643 188.078 212.063L173.437 205.609C168.064 217.8 165.561 232.44 165.561 249.227H181.561ZM188.063 212.097C191.26 204.935 195.603 198.513 201.12 192.803L189.614 181.685C182.814 188.722 177.417 196.696 173.453 205.575L188.063 212.097ZM201.088 192.836C206.654 187.142 212.582 183.068 218.859 180.447L212.695 165.682C204.22 169.22 196.541 174.599 189.646 181.652L201.088 192.836ZM218.896 180.431C227.542 176.771 237.762 174.834 249.723 174.834V158.834C236.045 158.834 223.635 161.05 212.658 165.697L218.896 180.431ZM249.723 174.834C271.132 174.834 287.469 181.401 299.611 193.982L311.123 182.87C295.479 166.661 274.719 158.834 249.723 158.834V174.834ZM299.625 193.996C311.77 206.514 318.314 224.312 318.314 248.475H334.314C334.314 221.361 326.894 199.126 311.109 182.855L299.625 193.996ZM318.314 248.475C318.314 272.423 311.84 290.133 299.812 302.66L311.353 313.742C326.967 297.48 334.314 275.373 334.314 248.475H318.314ZM299.825 302.646C287.758 315.151 271.495 321.686 250.152 321.686V337.686C275.072 337.686 295.763 329.897 311.339 313.756L299.825 302.646ZM250.152 321.686C228.478 321.686 212.081 315.159 200.036 302.739L188.55 313.878C204.148 329.961 224.99 337.686 250.152 337.686V321.686ZM200.05 302.753C188.016 290.283 181.561 272.782 181.561 249.227H165.561C165.561 275.801 172.927 297.688 188.536 313.864L200.05 302.753ZM198.324 248.152C198.324 267.093 202.69 282.845 212.706 294.081L224.649 283.434C218.195 276.194 214.324 264.875 214.324 248.152H198.324ZM212.727 294.104C222.529 305.014 235.173 310.508 250.045 310.508V294.508C239.565 294.508 231.298 290.835 224.629 283.411L212.727 294.104ZM250.045 310.508C264.897 310.508 277.494 305.063 287.174 294.183L275.221 283.547C268.716 290.858 260.544 294.508 250.045 294.508V310.508ZM287.171 294.186C297.15 282.982 301.443 267.014 301.443 247.723H285.443C285.443 264.955 281.573 276.415 275.223 283.545L287.171 294.186ZM301.443 247.723C301.443 228.688 297.276 212.939 287.48 201.996L275.559 212.668C281.662 219.486 285.443 230.664 285.443 247.723H301.443ZM287.504 202.023C277.94 191.242 265.172 186.012 250.045 186.012V202.012C261.129 202.012 269.344 205.662 275.535 212.641L287.504 202.023ZM250.045 186.012C234.874 186.012 222.055 191.343 212.376 202.232L224.335 212.862C230.697 205.704 239.005 202.012 250.045 202.012V186.012ZM212.397 202.208C202.533 213.218 198.324 229.034 198.324 248.152H214.324C214.324 231.034 218.136 219.78 224.314 212.885L212.397 202.208Z" fill="#E0E0E0"/>
</svg>
